#N canvas 991 377 489 411 12;
#X text 175 51 log in 0-1;
#X text 156 223 linear out 0-1;
#X obj 335 117 + 4.6;
#X obj 335 141 / 4.6;
#X obj 335 93 log;
#X obj 21 50 log;
#X obj 21 74 moses -2;
#X obj 21 153 m_scale -6 -2 0 0.5;
#X obj 74 116 m_scale -2 0 0.5 1;
#X obj 21 177 moses 0;
#X obj 75 225 outlet;
#X obj 21 26 inlet;
#X text 99 19 empirical to Bela A100kOhm cheap pot;
#X obj 75 201 m_scale 0.02 0.98 0 1;
#X connect 2 0 3 0;
#X connect 4 0 2 0;
#X connect 5 0 6 0;
#X connect 6 0 7 0;
#X connect 6 1 8 0;
#X connect 7 0 9 0;
#X connect 8 0 13 0;
#X connect 9 1 13 0;
#X connect 11 0 5 0;
#X connect 13 0 10 0;
