#N canvas 323 69 1625 1163 12;
#X declare -path . -path lib;
#N canvas 0 37 536 303 LOADBANGS 0;
#X obj 172 140 s gain;
#X msg 172 119 1;
#X msg 290 121 0;
#X obj 290 142 s mode;
#X text 322 116 start in Play mode;
#X text 322 127 not Freeze mode;
#X obj 154 14 loadbang;
#X obj 154 57 s loadbang;
#X obj 154 36 bng 15 250 50 0 empty empty empty 17 7 0 10 #fcfcfc #000000 #000000;
#X obj 290 100 r loadbang;
#X obj 172 98 r loadbang;
#X obj 108 13 inlet;
#X msg 168 221 verbose 0;
#X obj 168 245 s bela_setMidi;
#X obj 168 190 r loadbang;
#X connect 1 0 0 0;
#X connect 2 0 3 0;
#X connect 6 0 8 0;
#X connect 8 0 7 0;
#X connect 9 0 2 0;
#X connect 10 0 1 0;
#X connect 11 0 8 0;
#X connect 12 0 13 0;
#X connect 14 0 12 0;
#X restore 36 51 pd LOADBANGS;
#X obj 36 31 bng 15 250 50 0 empty empty empty 17 7 0 10 #fcfcfc #000000 #000000;
#X obj 325 106 tgl 19 0 empty empty empty 0 -10 0 12 #fcfcfc #000000 #000000 0 1;
#X text 243 101 Play patch manually, f 11;
#X text 59 189 Bela IDE monitor, f 18;
#N canvas 81 402 772 492 emg 0;
#X obj 30 254 vsl 19 162 0 1 0 0 empty empty empty 0 -9 0 12 #fcfcfc #000000 #000000 0 1;
#X obj 111 254 vsl 19 162 0 1 0 0 empty empty empty 0 -9 0 12 #fcfcfc #000000 #000000 0 1;
#X obj 111 221 eavi-rms;
#N canvas 333 268 250 226 range 0;
#X floatatom 37 78 5 0 0 0 - - - 0;
#X obj 37 101 - 8192;
#X obj 37 125 / 8192;
#X floatatom 37 149 5 0 0 0 - - - 0;
#X obj 37 45 inlet;
#X obj 37 180 outlet;
#X text 98 94 14 bit value converted to -1 to 1, f 14;
#X connect 0 0 1 0;
#X connect 1 0 2 0;
#X connect 2 0 3 0;
#X connect 3 0 5 0;
#X connect 4 0 0 0;
#X restore 30 179 pd range;
#N canvas 333 268 250 226 range 0;
#X floatatom 37 78 5 0 0 0 - - - 0;
#X obj 37 101 - 8192;
#X obj 37 125 / 8192;
#X floatatom 37 149 5 0 0 0 - - - 0;
#X obj 37 45 inlet;
#X obj 37 180 outlet;
#X text 98 94 14 bit value converted to -1 to 1, f 14;
#X connect 0 0 1 0;
#X connect 1 0 2 0;
#X connect 2 0 3 0;
#X connect 3 0 5 0;
#X connect 4 0 0 0;
#X restore 111 179 pd range;
#X floatatom 563 203 5 0 0 0 - - - 0;
#X text 562 224 smoothing (ms), f 15;
#X obj 675 160 loadbang;
#X obj 30 221 eavi-rms;
#X msg 563 179 200;
#X msg 496 179 10;
#X obj 30 424 outlet;
#X obj 111 424 outlet;
#X obj 30 102 bendin 2;
#X obj 111 102 bendin 3;
#X obj 495 62 inlet;
#X obj 563 62 inlet;
#X obj 563 110 + 1;
#X text 28 37 strangely \, EMG-1 comes out of Bendin 2...;
#X floatatom 496 203 5 0 0 0 - - - 0;
#X obj 496 111 + 1;
#X obj 496 87 * 20;
#X obj 190 254 vsl 19 162 0 1 0 0 empty empty empty 0 -9 0 12 #fcfcfc #000000 #000000 0 1;
#X obj 271 254 vsl 19 162 0 1 0 0 empty empty empty 0 -9 0 12 #fcfcfc #000000 #000000 0 1;
#X obj 271 221 eavi-rms;
#N canvas 333 268 250 226 range 0;
#X floatatom 37 78 5 0 0 0 - - - 0;
#X obj 37 101 - 8192;
#X obj 37 125 / 8192;
#X floatatom 37 149 5 0 0 0 - - - 0;
#X obj 37 45 inlet;
#X obj 37 180 outlet;
#X text 98 94 14 bit value converted to -1 to 1, f 14;
#X connect 0 0 1 0;
#X connect 1 0 2 0;
#X connect 2 0 3 0;
#X connect 3 0 5 0;
#X connect 4 0 0 0;
#X restore 190 179 pd range;
#N canvas 333 268 250 226 range 0;
#X floatatom 37 78 5 0 0 0 - - - 0;
#X obj 37 101 - 8192;
#X obj 37 125 / 8192;
#X floatatom 37 149 5 0 0 0 - - - 0;
#X obj 37 45 inlet;
#X obj 37 180 outlet;
#X text 98 94 14 bit value converted to -1 to 1, f 14;
#X connect 0 0 1 0;
#X connect 1 0 2 0;
#X connect 2 0 3 0;
#X connect 3 0 5 0;
#X connect 4 0 0 0;
#X restore 271 179 pd range;
#X obj 190 221 eavi-rms;
#X obj 190 424 outlet;
#X obj 271 424 outlet;
#X obj 190 102 bendin 4;
#X obj 271 103 bendin 5;
#X obj 37 142 s emg1-raw;
#X obj 116 142 s emg2-raw;
#X obj 197 142 s emg3-raw;
#X obj 276 142 s emg4-raw;
#X obj 365 419 sig~;
#X obj 365 453 dac~ 7 8 9 10, f 15;
#X obj 399 419 sig~;
#X obj 433 419 sig~;
#X obj 467 419 sig~;
#X text 366 374 Smoothed EMG goes to Bela Pepper CV out 4 \, 5 \, 6 \, 7, f 33;
#X text 468 225 gain EMG 1 \, 2 \, 3 \, 4, f 10;
#X text 462 34 Knob 1(0);
#X obj 563 86 * 400;
#X text 557 33 Knob 2(1);
#X text 612 59 smoothing;
#X connect 0 0 11 0;
#X connect 0 0 36 0;
#X connect 1 0 12 0;
#X connect 1 0 38 0;
#X connect 2 0 1 0;
#X connect 3 0 8 0;
#X connect 4 0 2 0;
#X connect 5 0 8 1;
#X connect 5 0 2 1;
#X connect 5 0 27 1;
#X connect 5 0 24 1;
#X connect 7 0 9 0;
#X connect 7 0 10 0;
#X connect 8 0 0 0;
#X connect 9 0 5 0;
#X connect 10 0 19 0;
#X connect 13 0 3 0;
#X connect 13 0 32 0;
#X connect 14 0 4 0;
#X connect 14 0 33 0;
#X connect 15 0 21 0;
#X connect 16 0 44 0;
#X connect 17 0 5 0;
#X connect 19 0 8 3;
#X connect 19 0 27 3;
#X connect 19 0 2 3;
#X connect 19 0 24 3;
#X connect 20 0 19 0;
#X connect 21 0 20 0;
#X connect 22 0 28 0;
#X connect 22 0 39 0;
#X connect 23 0 29 0;
#X connect 23 0 40 0;
#X connect 24 0 23 0;
#X connect 25 0 27 0;
#X connect 26 0 24 0;
#X connect 27 0 22 0;
#X connect 30 0 25 0;
#X connect 30 0 34 0;
#X connect 31 0 26 0;
#X connect 31 0 35 0;
#X connect 36 0 37 0;
#X connect 38 0 37 1;
#X connect 39 0 37 2;
#X connect 40 0 37 3;
#X connect 44 0 17 0;
#X coords 0 492 1 491 85 60 0;
#X restore 560 85 pd emg;
#X f 10;
#N canvas 40 158 1243 494 parameter-monitor 0;
#X text 90 10 monitor parameters in Bela IDE console;
#X obj 106 67 tgl 19 0 empty empty empty 0 -10 0 12 #fcfcfc #000000 #000000 0 1;
#X obj 106 134 t b b b b b, f 30;
#X obj 530 443 print;
#X obj 106 42 inlet;
#X obj 106 261 pack 0 0 0 0 0 0 0 0, f 55;
#X obj 106 236 f;
#X obj 156 236 f;
#X obj 209 236 f;
#X obj 261 236 f;
#X obj 314 236 f;
#X obj 384 232 f;
#X obj 434 232 f;
#X obj 487 232 f;
#X obj 452 161 r cv6;
#X obj 528 190 r cv7;
#X msg 646 290 cv0 \$1 cv1 \$2 dry \$3 wet \$4 cv4 \$5 cv5 \$6 cv6 \$7 cv7 \$8;
#X obj 106 90 metro 2000;
#X obj 647 153 t b b b b b, f 30;
#X obj 647 254 pack 0 0 0 0 0 0 0 0, f 55;
#X obj 647 229 f;
#X obj 697 229 f;
#X obj 750 229 f;
#X obj 802 229 f;
#X obj 855 229 f;
#X obj 925 225 f;
#X obj 975 225 f;
#X obj 1028 225 f;
#X obj 945 184 r cv6;
#X obj 990 184 r cv7;
#X obj 666 184 r cv0;
#X obj 708 184 r cv1;
#X obj 751 184 r cv2;
#X obj 793 184 r cv3;
#X obj 835 184 r cv4;
#X obj 887 184 r cv5;
#X obj 19 159 r cv0;
#X obj 81 189 r cv1;
#X obj 171 160 r cv2;
#X obj 210 189 r cv3;
#X obj 297 163 r cv4;
#X obj 391 191 r cv5;
#X msg 113 294 \$1 \$2 \$3 \$4 \$5 \$6 \$7 \$8;
#X connect 1 0 17 0;
#X connect 2 0 6 0;
#X connect 2 1 7 0;
#X connect 2 2 8 0;
#X connect 2 3 9 0;
#X connect 2 4 10 0;
#X connect 2 4 11 0;
#X connect 2 4 13 0;
#X connect 2 4 12 0;
#X connect 4 0 1 0;
#X connect 5 0 42 0;
#X connect 6 0 5 0;
#X connect 7 0 5 1;
#X connect 8 0 5 2;
#X connect 9 0 5 3;
#X connect 10 0 5 4;
#X connect 11 0 5 5;
#X connect 12 0 5 6;
#X connect 13 0 5 7;
#X connect 14 0 12 1;
#X connect 15 0 13 1;
#X connect 17 0 2 0;
#X connect 17 0 18 0;
#X connect 18 0 20 0;
#X connect 18 1 21 0;
#X connect 18 2 22 0;
#X connect 18 3 23 0;
#X connect 18 4 24 0;
#X connect 18 4 25 0;
#X connect 18 4 27 0;
#X connect 18 4 26 0;
#X connect 19 0 16 0;
#X connect 20 0 19 0;
#X connect 21 0 19 1;
#X connect 22 0 19 2;
#X connect 23 0 19 3;
#X connect 24 0 19 4;
#X connect 25 0 19 5;
#X connect 26 0 19 6;
#X connect 27 0 19 7;
#X connect 28 0 26 1;
#X connect 29 0 27 1;
#X connect 30 0 20 1;
#X connect 31 0 21 1;
#X connect 32 0 22 1;
#X connect 33 0 23 1;
#X connect 34 0 24 1;
#X connect 35 0 25 1;
#X connect 36 0 6 1;
#X connect 37 0 7 1;
#X connect 38 0 8 1;
#X connect 39 0 9 1;
#X connect 40 0 10 1;
#X connect 41 0 11 1;
#X connect 42 0 3 0;
#X restore 35 227 pd parameter-monitor;
#X f 21;
#X obj 35 191 tgl 19 1 empty empty empty 0 -10 0 12 #fcfcfc #000000 #000000 0 1;
#X obj 560 59 r cv0;
#X obj 627 59 r cv1;
#X text 440 247 COMPOSITION HERE;
#X obj 557 728 adc~ 1;
#X text 57 131 Verbose to console, f 19;
#X obj 35 132 tgl 19 0 empty empty empty 0 -10 0 12 #fcfcfc #000000 #000000 0 1;
#X obj 35 156 s verbose;
#N canvas 656 139 1264 782 ble-midi 0;
#X msg 316 421 disconnect;
#X obj 288 450 netsend -u -b;
#X obj 303 371 loadbang;
#X text 389 451 send as UDP \, binary;
#X text 289 27 Spaces are delimiters instead of forward slash /;
#X msg 303 395 connect localhost 36892;
#X text 291 51 Set sets message \, then send data;
#X obj 29 403 select 1;
#X obj 29 427 t b b;
#X msg 61 454 set connect;
#X obj 289 126 select 1;
#X obj 289 150 t b b;
#X msg 321 177 set connect_alias;
#X obj 288 337 oscformat;
#X obj 29 508 list append 123456;
#X obj 491 130 select 1;
#X obj 491 181 bng 19 250 50 0 empty empty empty 0 -10 0 12 #fcfcfc #000000 #000000;
#X msg 523 181 set link_alsa;
#X obj 491 154 t b b;
#X msg 289 231 symbol EAVI;
#X msg 874 141 hw 1 0 0;
#X obj 980 39 r button3;
#X obj 874 111 select 1;
#X obj 874 169 s bela_setMidi;
#X msg 33 227 symbol E2:16:01:30:32:30;
#X msg 33 149 symbol E2:16:01:39:31:30;
#X msg 36 74 symbol E2:16:01:37:31:30;
#X text 38 44 EAVI 17 Viola;
#X text 35 120 EAVI 19 Bass clarinet;
#X text 36 198 EAVI 20 Piano;
#X obj 29 375 change;
#X obj 289 98 change;
#X obj 491 102 change;
#X obj 874 83 change;
#X msg 29 481 symbol E2:16:01:37:31:30;
#X obj 289 74 r button1;
#X obj 584 255 oscparse;
#X obj 584 221 netreceive -u -b 36893;
#X obj 584 356 print connect;
#X obj 661 383 print connect_alias;
#X obj 739 409 print link_alsa;
#X obj 584 291 route list;
#X obj 584 324 route connect connect_alias link_alsa wd_status wd_PANIC;
#X text 697 463 strip timestamp;
#X obj 895 360 bng 19 250 50 0 empty empty empty 0 -10 0 12 #fcfcfc #000000 #000000;
#X obj 817 443 unpack 0 0 0;
#X floatatom 817 467 5 0 0 0 - - - 0;
#X floatatom 858 467 5 0 0 0 - - - 0;
#X floatatom 898 468 5 0 0 0 - - - 0;
#X obj 858 515 bng 19 250 50 0 empty empty empty 0 -10 0 12 #fcfcfc #000000 #000000;
#X obj 895 515 bng 19 250 50 0 empty empty empty 0 -10 0 12 #fcfcfc #000000 #000000;
#X obj 895 544 f;
#X obj 895 592 bng 19 250 50 0 empty empty empty 0 -10 0 12 #fcfcfc #000000 #000000;
#X obj 928 593 bng 19 250 50 0 empty empty empty 0 -10 0 12 #fcfcfc #000000 #000000;
#X obj 858 490 select 16 0;
#X text 867 291 need data on PANIC;
#X obj 895 568 select 4 0;
#X msg 928 617 Connected...;
#X msg 895 641 Reconnecting;
#X msg 858 666 DISCONNECTED;
#X obj 638 670 tgl 19 0 empty empty empty 0 -10 0 12 #fcfcfc #000000 #000000 0 1;
#X obj 663 693 tgl 19 0 empty empty empty 0 -10 0 12 #fcfcfc #000000 #000000 0 1;
#X obj 663 669 metro 150;
#X obj 684 643 unpack;
#X msg 684 610 1 150;
#X msg 738 610 1 350;
#X msg 791 610 1 1000;
#X obj 663 716 outlet;
#X obj 789 359 print status;
#X text 575 104 watchdog takes care of this;
#X obj 800 62 loadbang;
#X obj 901 40 r button2;
#X text 30 270 EAVI 8 Piano;
#X msg 27 299 symbol E2:16:01:38:30:30;
#X obj 1021 717 print EAVI-BLE;
#X obj 1021 692 spigot;
#X obj 895 415 print PANIC;
#X obj 895 391 spigot;
#X obj 979 415 print other;
#X obj 979 387 spigot;
#X obj 1109 317 r verbose;
#X obj 1109 341 tgl 19 0 empty empty empty 0 -10 0 12 #fcfcfc #000000 #000000 0 1;
#X obj 248 521 print sendosc;
#X obj 248 493 spigot;
#X connect 0 0 1 0;
#X connect 2 0 5 0;
#X connect 5 0 1 0;
#X connect 5 0 83 0;
#X connect 7 0 8 0;
#X connect 8 0 34 0;
#X connect 8 1 9 0;
#X connect 10 0 11 0;
#X connect 11 0 19 0;
#X connect 11 1 12 0;
#X connect 12 0 13 0;
#X connect 13 0 1 0;
#X connect 13 0 83 0;
#X connect 15 0 18 0;
#X connect 16 0 13 0;
#X connect 17 0 13 0;
#X connect 18 0 16 0;
#X connect 18 1 17 0;
#X connect 19 0 13 0;
#X connect 20 0 23 0;
#X connect 22 0 20 0;
#X connect 30 0 7 0;
#X connect 31 0 10 0;
#X connect 32 0 15 0;
#X connect 33 0 22 0;
#X connect 34 0 14 0;
#X connect 35 0 31 0;
#X connect 36 0 41 0;
#X connect 37 0 36 0;
#X connect 41 0 42 0;
#X connect 42 0 38 0;
#X connect 42 1 39 0;
#X connect 42 2 40 0;
#X connect 42 3 45 0;
#X connect 42 4 44 0;
#X connect 42 5 79 0;
#X connect 44 0 77 0;
#X connect 45 0 46 0;
#X connect 45 1 47 0;
#X connect 45 2 48 0;
#X connect 47 0 54 0;
#X connect 48 0 51 1;
#X connect 49 0 59 0;
#X connect 49 0 64 0;
#X connect 50 0 51 0;
#X connect 51 0 56 0;
#X connect 52 0 58 0;
#X connect 52 0 65 0;
#X connect 53 0 57 0;
#X connect 53 0 66 0;
#X connect 54 0 49 0;
#X connect 54 1 50 0;
#X connect 56 0 52 0;
#X connect 56 1 53 0;
#X connect 57 0 75 0;
#X connect 58 0 75 0;
#X connect 59 0 75 0;
#X connect 60 0 62 0;
#X connect 61 0 67 0;
#X connect 62 0 61 0;
#X connect 63 0 60 0;
#X connect 63 1 62 1;
#X connect 64 0 63 0;
#X connect 65 0 63 0;
#X connect 66 0 63 0;
#X connect 70 0 20 0;
#X connect 75 0 74 0;
#X connect 77 0 76 0;
#X connect 79 0 78 0;
#X connect 80 0 81 0;
#X connect 81 0 79 1;
#X connect 81 0 77 1;
#X connect 81 0 75 1;
#X connect 81 0 83 1;
#X connect 83 0 82 0;
#X restore 367 55 pd ble-midi;
#X obj 564 767 vu 19 200 empty empty -1 -10 0 12 #404040 #000000 1 0;
#X obj 834 748 loadbang;
#X obj 614 767 vu 19 200 empty empty -1 -10 0 12 #404040 #000000 1 0;
#X obj 835 827 vsl 20 128 -99 18 0 1 \$0-gain gain gain -7 -18 0 14 #fca85c #000000 #000000 11072 1;
#X floatatom 835 963 5 0 0 1 _db - - 0;
#X msg 834 772 3;
#X obj 559 156 vsl 16 100 0 1 0 0 empty empty empty 0 -9 0 12 #01e4e9 #000000 #000000 0 1;
#X obj 580 156 vsl 16 100 0 1 0 0 empty empty empty 0 -9 0 12 #01e4e9 #000000 #000000 0 1;
#X obj 617 156 vsl 16 100 0 1 0 0 empty empty empty 0 -9 0 12 #faff00 #000000 #000000 0 1;
#X obj 638 156 vsl 16 100 0 1 0 0 empty empty empty 0 -9 0 12 #faff00 #000000 #000000 0 1;
#X obj 675 155 vsl 16 100 0 1 0 0 empty empty empty 0 -9 0 12 #e3c6ff #000000 #000000 0 1;
#X obj 696 155 vsl 16 100 0 1 0 0 empty empty empty 0 -9 0 12 #e3c6ff #000000 #000000 0 1;
#N canvas 92 266 1655 446 mapper 0;
#X obj 20 82 inlet;
#X floatatom 20 106 5 0 0 0 - - - 0;
#X obj 37 174 m_scale 0 1 0 100;
#X floatatom 37 198 5 0 0 0 - - - 0;
#X floatatom 76 151 5 0 0 0 - - - 0;
#X floatatom 115 151 5 0 0 0 - - - 0;
#X floatatom 154 151 5 0 0 0 - - - 0;
#X obj 37 316 send;
#X msg 72 262 symbol doublebuf1-stretch;
#X symbolatom 62 290 25 0 0 0 - - - 0;
#X obj 63 106 route send min max curve;
#X obj 63 82 r map1;
#X obj 249 82 inlet;
#X floatatom 249 106 5 0 0 0 - - - 0;
#X obj 266 174 m_scale 0 1 0 100;
#X floatatom 266 198 5 0 0 0 - - - 0;
#X floatatom 305 151 5 0 0 0 - - - 0;
#X floatatom 344 151 5 0 0 0 - - - 0;
#X floatatom 383 151 5 0 0 0 - - - 0;
#X obj 266 316 send;
#X symbolatom 291 290 25 0 0 0 - - - 0;
#X obj 292 106 route send min max curve;
#X obj 292 82 r map2;
#X msg 301 262 symbol doublebuf1-dur;
#X obj 505 78 inlet;
#X floatatom 505 102 5 0 0 0 - - - 0;
#X obj 522 170 m_scale 0 1 0 100;
#X floatatom 522 194 5 0 0 0 - - - 0;
#X floatatom 561 147 5 0 0 0 - - - 0;
#X floatatom 600 147 5 0 0 0 - - - 0;
#X floatatom 639 147 5 0 0 0 - - - 0;
#X obj 522 312 send;
#X symbolatom 547 286 25 0 0 0 - - - 0;
#X obj 548 102 route send min max curve;
#X obj 734 78 inlet;
#X floatatom 734 102 5 0 0 0 - - - 0;
#X obj 751 170 m_scale 0 1 0 100;
#X floatatom 751 194 5 0 0 0 - - - 0;
#X floatatom 790 147 5 0 0 0 - - - 0;
#X floatatom 829 147 5 0 0 0 - - - 0;
#X floatatom 868 147 5 0 0 0 - - - 0;
#X obj 751 312 send;
#X symbolatom 776 286 25 0 0 0 - - - 0;
#X obj 777 102 route send min max curve;
#X obj 981 78 inlet;
#X floatatom 981 102 5 0 0 0 - - - 0;
#X obj 998 170 m_scale 0 1 0 100;
#X floatatom 998 194 5 0 0 0 - - - 0;
#X floatatom 1037 147 5 0 0 0 - - - 0;
#X floatatom 1076 147 5 0 0 0 - - - 0;
#X floatatom 1115 147 5 0 0 0 - - - 0;
#X obj 998 312 send;
#X symbolatom 1023 286 25 0 0 0 - - - 0;
#X obj 1024 102 route send min max curve;
#X obj 1210 78 inlet;
#X floatatom 1210 102 5 0 0 0 - - - 0;
#X obj 1227 170 m_scale 0 1 0 100;
#X floatatom 1227 194 5 0 0 0 - - - 0;
#X floatatom 1266 147 5 0 0 0 - - - 0;
#X floatatom 1305 147 5 0 0 0 - - - 0;
#X floatatom 1344 147 5 0 0 0 - - - 0;
#X obj 1227 312 send;
#X symbolatom 1252 286 25 0 0 0 - - - 0;
#X obj 1253 102 route send min max curve;
#X obj 548 78 r map3;
#X obj 777 78 r map4;
#X obj 1024 78 r map5;
#X obj 1253 78 r map6;
#X msg 557 258 symbol doublebuf2-stretch;
#X msg 786 258 symbol doublebuf2-dur;
#X msg 1033 258 symbol doublebuf3-stretch;
#X msg 1262 258 symbol doublebuf3-dur;
#X msg 79 339 \; map1 send symbol doublebuf1-dur \; map1 min 0 \; map1 max 100 \; map1 curve 2 \;, f 33;
#X obj 1440 79 inlet;
#X floatatom 1440 103 5 0 0 0 - - - 0;
#X obj 1457 171 m_scale 0 1 0 100;
#X floatatom 1457 195 5 0 0 0 - - - 0;
#X floatatom 1496 148 5 0 0 0 - - - 0;
#X floatatom 1535 148 5 0 0 0 - - - 0;
#X floatatom 1574 148 5 0 0 0 - - - 0;
#X obj 1457 313 send;
#X symbolatom 1482 287 25 0 0 0 - - - 0;
#X obj 1483 103 route send min max curve;
#X obj 1669 79 inlet;
#X floatatom 1669 103 5 0 0 0 - - - 0;
#X obj 1686 171 m_scale 0 1 0 100;
#X floatatom 1686 195 5 0 0 0 - - - 0;
#X floatatom 1725 148 5 0 0 0 - - - 0;
#X floatatom 1764 148 5 0 0 0 - - - 0;
#X floatatom 1803 148 5 0 0 0 - - - 0;
#X obj 1686 313 send;
#X symbolatom 1711 287 25 0 0 0 - - - 0;
#X obj 1712 103 route send min max curve;
#X msg 1492 259 symbol doublebuf3-stretch;
#X msg 1721 259 symbol doublebuf3-dur;
#X obj 1483 79 r map7;
#X obj 1712 79 r map8;
#X obj 1906 77 inlet;
#X floatatom 1906 101 5 0 0 0 - - - 0;
#X obj 1923 169 m_scale 0 1 0 100;
#X floatatom 1923 193 5 0 0 0 - - - 0;
#X floatatom 1962 146 5 0 0 0 - - - 0;
#X floatatom 2001 146 5 0 0 0 - - - 0;
#X floatatom 2040 146 5 0 0 0 - - - 0;
#X obj 1923 311 send;
#X symbolatom 1948 285 25 0 0 0 - - - 0;
#X obj 1949 101 route send min max curve;
#X obj 2135 77 inlet;
#X floatatom 2135 101 5 0 0 0 - - - 0;
#X obj 2152 169 m_scale 0 1 0 100;
#X floatatom 2152 193 5 0 0 0 - - - 0;
#X floatatom 2191 146 5 0 0 0 - - - 0;
#X floatatom 2230 146 5 0 0 0 - - - 0;
#X floatatom 2269 146 5 0 0 0 - - - 0;
#X obj 2152 311 send;
#X symbolatom 2177 285 25 0 0 0 - - - 0;
#X obj 2178 101 route send min max curve;
#X msg 1958 257 symbol doublebuf3-stretch;
#X msg 2187 257 symbol doublebuf3-dur;
#X obj 1949 77 r map9;
#X obj 2178 76 r map10;
#X text 41 25 TEN PROGRAMMABLE MAPPERS;
#X connect 0 0 1 0;
#X connect 1 0 2 0;
#X connect 2 0 3 0;
#X connect 3 0 7 0;
#X connect 4 0 2 3;
#X connect 5 0 2 4;
#X connect 6 0 2 5;
#X connect 8 0 9 0;
#X connect 9 0 7 1;
#X connect 10 0 9 0;
#X connect 10 1 4 0;
#X connect 10 2 5 0;
#X connect 10 3 6 0;
#X connect 11 0 10 0;
#X connect 12 0 13 0;
#X connect 13 0 14 0;
#X connect 14 0 15 0;
#X connect 15 0 19 0;
#X connect 16 0 14 3;
#X connect 17 0 14 4;
#X connect 18 0 14 5;
#X connect 20 0 19 1;
#X connect 21 0 20 0;
#X connect 21 1 16 0;
#X connect 21 2 17 0;
#X connect 21 3 18 0;
#X connect 22 0 21 0;
#X connect 23 0 20 0;
#X connect 24 0 25 0;
#X connect 25 0 26 0;
#X connect 26 0 27 0;
#X connect 27 0 31 0;
#X connect 28 0 26 3;
#X connect 29 0 26 4;
#X connect 30 0 26 5;
#X connect 32 0 31 1;
#X connect 33 0 32 0;
#X connect 33 1 28 0;
#X connect 33 2 29 0;
#X connect 33 3 30 0;
#X connect 34 0 35 0;
#X connect 35 0 36 0;
#X connect 36 0 37 0;
#X connect 37 0 41 0;
#X connect 38 0 36 3;
#X connect 39 0 36 4;
#X connect 40 0 36 5;
#X connect 42 0 41 1;
#X connect 43 0 42 0;
#X connect 43 1 38 0;
#X connect 43 2 39 0;
#X connect 43 3 40 0;
#X connect 44 0 45 0;
#X connect 45 0 46 0;
#X connect 46 0 47 0;
#X connect 47 0 51 0;
#X connect 48 0 46 3;
#X connect 49 0 46 4;
#X connect 50 0 46 5;
#X connect 52 0 51 1;
#X connect 53 0 52 0;
#X connect 53 1 48 0;
#X connect 53 2 49 0;
#X connect 53 3 50 0;
#X connect 54 0 55 0;
#X connect 55 0 56 0;
#X connect 56 0 57 0;
#X connect 57 0 61 0;
#X connect 58 0 56 3;
#X connect 59 0 56 4;
#X connect 60 0 56 5;
#X connect 62 0 61 1;
#X connect 63 0 62 0;
#X connect 63 1 58 0;
#X connect 63 2 59 0;
#X connect 63 3 60 0;
#X connect 64 0 33 0;
#X connect 65 0 43 0;
#X connect 66 0 53 0;
#X connect 67 0 63 0;
#X connect 68 0 32 0;
#X connect 69 0 42 0;
#X connect 70 0 52 0;
#X connect 71 0 62 0;
#X connect 73 0 74 0;
#X connect 74 0 75 0;
#X connect 75 0 76 0;
#X connect 76 0 80 0;
#X connect 77 0 75 3;
#X connect 78 0 75 4;
#X connect 79 0 75 5;
#X connect 81 0 80 1;
#X connect 82 0 81 0;
#X connect 82 1 77 0;
#X connect 82 2 78 0;
#X connect 82 3 79 0;
#X connect 83 0 84 0;
#X connect 84 0 85 0;
#X connect 85 0 86 0;
#X connect 86 0 90 0;
#X connect 87 0 85 3;
#X connect 88 0 85 4;
#X connect 89 0 85 5;
#X connect 91 0 90 1;
#X connect 92 0 91 0;
#X connect 92 1 87 0;
#X connect 92 2 88 0;
#X connect 92 3 89 0;
#X connect 93 0 81 0;
#X connect 94 0 91 0;
#X connect 95 0 82 0;
#X connect 96 0 92 0;
#X connect 97 0 98 0;
#X connect 98 0 99 0;
#X connect 99 0 100 0;
#X connect 100 0 104 0;
#X connect 101 0 99 3;
#X connect 102 0 99 4;
#X connect 103 0 99 5;
#X connect 105 0 104 1;
#X connect 106 0 105 0;
#X connect 106 1 101 0;
#X connect 106 2 102 0;
#X connect 106 3 103 0;
#X connect 107 0 108 0;
#X connect 108 0 109 0;
#X connect 109 0 110 0;
#X connect 110 0 114 0;
#X connect 111 0 109 3;
#X connect 112 0 109 4;
#X connect 113 0 109 5;
#X connect 115 0 114 1;
#X connect 116 0 115 0;
#X connect 116 1 111 0;
#X connect 116 2 112 0;
#X connect 116 3 113 0;
#X connect 117 0 105 0;
#X connect 118 0 115 0;
#X connect 119 0 106 0;
#X connect 120 0 116 0;
#X restore 559 269 pd mapper;
#X f 38;
#X obj 674 109 r cv2;
#X obj 696 131 r cv3;
#X obj 734 156 vsl 16 100 0 1 0 0 empty empty empty 0 -9 0 12 #ff8300 #000000 #000000 0 1;
#X obj 755 156 vsl 16 100 0 1 0 0 empty empty empty 0 -9 0 12 #ff8300 #000000 #000000 0 1;
#X obj 734 109 r cv4;
#X obj 755 131 r cv5;
#X obj 691 768 dac~ 1 2, f 10;
#N canvas 0 37 661 671 credits 0;
#X text 37 258 msp Granular Synthesis;
#X text 36 276 Adam Parkinson / RJDJ iOS / 2010;
#X text 200 257 nobuyasu sakodna / MaxMSP / 1999;
#X text 36 184 Based on our port of Sakonda-san's MSP granular synth;
#X text 36 201 Combined with Cipriani & Giri's Gen~ cloud generator from their Vol. 3 book, f 77;
#X text 37 294 Atau Tanaka 2024;
#X text 36 165 Granular cloud CLONE generator;
#X text 37 221 granular engine plays one grain at a time at density \, overflowing to next available grain when busy \, uses clone object to instantiate grains, f 77;
#X text 40 59 DEPLACEMENT for EMG and CHAMBER TRIO;
#X text 40 83 for ERAMAA TRIO 2024;
#X text 40 107 Atau Tanaka;
#X text 37 142 BTMIDID BLE MIDI by Nathan Adams;
#X text 40 37 Om Ujjayi v2 performance patch based on;
#X restore 58 27 pd credits;
#N canvas 121 146 539 397 emg-sonification 0;
#X obj 29 37 r emg1-raw;
#X obj 109 37 r emg2-raw;
#X obj 190 37 r emg3-raw;
#X obj 271 37 r emg4-raw;
#X obj 290 153 r raw-emg-gain;
#N canvas 333 268 366 295 xbend-cv 0;
#X floatatom 37 124 5 0 0 0 - - - 0;
#X obj 37 100 inlet;
#X text 39 31 14 bit value converted to 0 to 1 for 0-5V CV (watch out - DC offset), f 38;
#X obj 37 147 / 16384;
#X obj 37 194 sig~;
#X obj 37 218 outlet~;
#X floatatom 111 124 5 0 0 0 - - - 0;
#X obj 111 100 inlet;
#X obj 111 147 / 16384;
#X obj 111 194 sig~;
#X obj 111 218 outlet~;
#X floatatom 176 124 5 0 0 0 - - - 0;
#X obj 176 100 inlet;
#X obj 176 147 / 16384;
#X obj 176 194 sig~;
#X obj 176 218 outlet~;
#X floatatom 250 124 5 0 0 0 - - - 0;
#X obj 250 100 inlet;
#X obj 250 147 / 16384;
#X obj 250 194 sig~;
#X obj 250 218 outlet~;
#X connect 0 0 3 0;
#X connect 1 0 0 0;
#X connect 3 0 4 0;
#X connect 4 0 5 0;
#X connect 6 0 8 0;
#X connect 7 0 6 0;
#X connect 8 0 9 0;
#X connect 9 0 10 0;
#X connect 11 0 13 0;
#X connect 12 0 11 0;
#X connect 13 0 14 0;
#X connect 14 0 15 0;
#X connect 16 0 18 0;
#X connect 17 0 16 0;
#X connect 18 0 19 0;
#X connect 19 0 20 0;
#X restore 29 95 pd xbend-cv;
#X f 35;
#X obj 98 265 dac~ 3 4 5, f 11;
#X text 100 292 sum emg 1-4 on CV out 0;
#X text 99 314 L emg 1-2 on CV out 1;
#X text 100 338 R emg 3-4 on CV out 2;
#X text 317 180 assigned in pd mappings;
#X obj 16 165 *~ 0.5;
#X obj 66 165 *~ 0.5;
#X obj 114 165 *~ 0.5;
#X obj 164 165 *~ 0.5;
#X obj 98 228 *~ 1;
#X obj 135 228 *~ 1;
#X obj 172 229 *~ 1;
#X connect 0 0 5 0;
#X connect 1 0 5 1;
#X connect 2 0 5 2;
#X connect 3 0 5 3;
#X connect 4 0 15 1;
#X connect 4 0 16 1;
#X connect 4 0 17 1;
#X connect 5 0 11 0;
#X connect 5 0 16 0;
#X connect 5 1 12 0;
#X connect 5 1 16 0;
#X connect 5 2 13 0;
#X connect 5 2 17 0;
#X connect 5 3 14 0;
#X connect 5 3 17 0;
#X connect 11 0 15 0;
#X connect 12 0 15 0;
#X connect 13 0 15 0;
#X connect 14 0 15 0;
#X connect 15 0 6 0;
#X connect 16 0 6 1;
#X connect 17 0 6 2;
#X restore 637 85 pd emg-sonification;
#X obj 792 154 vsl 16 100 0 1 0 0 empty empty empty 0 -9 0 12 #c6ffc7 #000000 #000000 0 1;
#X obj 813 154 vsl 16 100 0 1 0 0 empty empty empty 0 -9 0 12 #c6ffc7 #000000 #000000 0 1;
#X obj 792 107 r cv6;
#X obj 813 129 r cv7;
#N canvas 816 330 1068 660 mappings 0;
#X obj 724 457 bng 19 250 50 0 empty empty empty 0 -10 0 12 #fcfcfc #000000 #000000;
#X obj 820 460 bng 19 250 50 0 empty empty empty 0 -10 0 12 #fcfcfc #000000 #000000;
#X obj 913 461 bng 19 250 50 0 empty empty empty 0 -10 0 12 #fcfcfc #000000 #000000;
#X obj 308 164 text define -k mycuelist;
#A set mycue 1 \; 300 mycue 2 \; 300 mycue 3 \;;
#X msg 276 134 line 0;
#X msg 195 134 auto;
#X msg 233 134 stop;
#X text 275 115 rewind;
#X obj 232 189 text sequence mycuelist -g -t 1 sec;
#X obj 225 14 r button4;
#X obj 195 60 change;
#X obj 195 84 select 1;
#X obj 195 108 t b b;
#N canvas 201 270 908 543 the-time 0;
#X obj 166 176 timer 1 sec;
#X floatatom 166 200 5 0 0 0 - - - 0;
#X obj 240 145 bng 19 250 50 0 empty empty empty 0 -10 0 12 #fcfcfc #000000 #000000;
#X obj 166 121 bng 19 250 50 0 empty empty empty 0 -10 0 12 #fcfcfc #000000 #000000;
#X obj 240 119 metro 1000;
#X obj 157 274 / 60;
#X obj 157 298 i;
#X floatatom 200 298 5 0 0 0 - - - 0;
#X floatatom 157 347 5 0 0 0 - - - 0;
#X obj 166 230 t f f;
#X obj 200 321 t b f;
#X obj 157 370 pack;
#X text 45 393 min / sec;
#X obj 250 419 list;
#X obj 250 395 bng 19 250 50 0 empty empty empty 0 -10 0 12 #fcfcfc #000000 #000000;
#X floatatom 250 297 5 0 0 0 - - - 0;
#X obj 250 320 select 0;
#X text 311 271 print every 10 sec;
#X obj 180 41 inlet;
#X obj 180 65 t b b;
#X msg 240 94 1;
#X obj 157 441 outlet;
#X obj 339 46 inlet;
#X msg 275 94 0;
#X obj 339 70 t b;
#X obj 250 273 mod 10;
#X obj 200 274 mod 60;
#X obj 250 473 print time;
#X obj 250 443 spigot;
#X obj 339 395 r verbose;
#X obj 339 419 tgl 19 0 empty empty empty 0 -10 0 12 #fcfcfc #000000 #000000 0 1;
#X connect 0 0 1 0;
#X connect 1 0 9 0;
#X connect 2 0 0 1;
#X connect 3 0 0 0;
#X connect 4 0 2 0;
#X connect 5 0 6 0;
#X connect 6 0 8 0;
#X connect 7 0 10 0;
#X connect 8 0 11 0;
#X connect 9 0 5 0;
#X connect 9 1 25 0;
#X connect 9 1 26 0;
#X connect 10 0 8 0;
#X connect 10 1 11 1;
#X connect 11 0 21 0;
#X connect 11 0 13 1;
#X connect 13 0 28 0;
#X connect 14 0 13 0;
#X connect 15 0 16 0;
#X connect 16 0 14 0;
#X connect 18 0 19 0;
#X connect 19 0 20 0;
#X connect 19 1 3 0;
#X connect 20 0 4 0;
#X connect 22 0 24 0;
#X connect 23 0 4 0;
#X connect 24 0 23 0;
#X connect 25 0 15 0;
#X connect 26 0 7 0;
#X connect 28 0 27 0;
#X connect 29 0 30 0;
#X connect 30 0 28 1;
#X restore 82 194 pd the-time;
#X msg 136 64 1;
#X obj 704 65 r mycue;
#X floatatom 703 92 5 0 0 0 - - - 0;
#X obj 704 200 select 1 2 3;
#X text 346 106 mycuelist keeps list of time (sec) and cue numbers, f 20;
#X text 802 195 cue numbers trigger presets for composition sections, f 28;
#X msg 156 171 stop;
#X obj 756 168 print mycue;
#X obj 723 381 change;
#X obj 723 405 select 1;
#X obj 654 75 f;
#X obj 723 429 t b;
#X obj 654 99 + 1;
#X obj 653 48 bng 19 250 50 0 empty empty empty 0 -10 0 12 #fcfcfc #000000 #000000;
#X obj 703 115 select 4;
#X msg 703 139 1;
#X obj 653 426 loadbang;
#X obj 271 345 loadbang;
#X obj 820 381 change;
#X obj 820 405 select 1;
#X obj 820 357 r button3;
#X obj 820 429 t b;
#X obj 723 357 r button2;
#X obj 913 380 change;
#X obj 913 404 select 1;
#X obj 913 428 t b;
#X obj 913 356 r button4;
#X connect 4 0 8 0;
#X connect 5 0 8 0;
#X connect 6 0 8 0;
#X connect 10 0 11 0;
#X connect 11 0 12 0;
#X connect 12 0 5 0;
#X connect 12 0 13 0;
#X connect 12 1 4 0;
#X connect 14 0 11 0;
#X connect 15 0 16 0;
#X connect 16 0 28 0;
#X connect 20 0 13 1;
#X connect 22 0 23 0;
#X connect 23 0 25 0;
#X connect 24 0 26 0;
#X connect 25 0 0 0;
#X connect 26 0 16 0;
#X connect 27 0 24 0;
#X connect 28 0 29 0;
#X connect 28 1 21 0;
#X connect 28 1 17 0;
#X connect 28 1 24 1;
#X connect 29 0 21 0;
#X connect 29 0 17 0;
#X connect 29 0 24 1;
#X connect 30 0 0 0;
#X connect 32 0 33 0;
#X connect 33 0 35 0;
#X connect 34 0 32 0;
#X connect 35 0 1 0;
#X connect 36 0 22 0;
#X connect 37 0 38 0;
#X connect 38 0 39 0;
#X connect 39 0 2 0;
#X connect 40 0 37 0;
#X restore 476 269 pd mappings;
#X text 862 801 (r gain);
#X text 836 269 map1-10;
#X obj 245 146 r button2;
#X obj 245 170 select 1;
#X obj 36 270 print Param-mon;
#X obj 367 125 bela-knobs-leds-salt, f 25;
#X obj 115 494 bela_scope~;
#X obj 115 398 r CV0;
#X obj 115 422 sig~;
#X text 128 362 unflipped input;
#X obj 160 423 sig~;
#X obj 160 399 r CV1;
#X obj 208 423 sig~;
#X obj 253 424 sig~;
#X obj 556 492 print T1;
#X obj 657 492 print T2;
#X obj 765 491 print T3;
#X obj 899 490 print T4;
#X obj 208 399 r CV4;
#X obj 253 400 r CV5;
#X obj 35 75 declare -path . -path lib;
#X obj 504 332 r bela_digitalIn26;
#X obj 658 446 flip 1;
#X obj 766 445 flip 1;
#X obj 900 444 flip 1;
#X obj 503 365 print D26;
#X obj 502 421 r bela_digitalIn17;
#X obj 502 445 flip 1;
#X obj 422 544 s bela_digitalOut13 @hv_param;
#X obj 506 605 s bela_digitalOut15 @hv_param;
#X obj 678 588 s bela_digitalOut19 @hv_param;
#X obj 888 620 s bela_digitalOut20 @hv_param;
#X obj 634 421 bela_trigIn 2;
#X obj 766 421 bela_trigIn 3;
#X obj 900 420 bela_trigIn 4;
#X obj 501 396 bela_trigIn 1;
#X obj 483 491 i;
#X obj 641 525 i;
#X obj 737 520 i;
#X obj 878 519 i;
#X obj 948 587 bela_led 4;
#X obj 878 543 change;
#X obj 737 544 change;
#X obj 641 549 change;
#X obj 483 515 change;
#X obj 878 567 + 1;
#X obj 92 670 r cv0;
#X text 88 646 0.0-1.0;
#X obj 135 670 r cv1;
#X obj 93 705 r cv2;
#X obj 136 705 r cv3;
#X obj 202 670 r cv4;
#X obj 245 670 r cv5;
#X obj 203 705 r cv6;
#X obj 246 704 r cv7;
#X connect 1 0 0 0;
#X connect 2 0 48 6;
#X connect 5 0 22 0;
#X connect 5 0 48 2;
#X connect 5 1 23 0;
#X connect 5 1 48 3;
#X connect 5 2 24 0;
#X connect 5 2 48 4;
#X connect 5 3 25 0;
#X connect 5 3 48 5;
#X connect 7 0 6 0;
#X connect 7 0 47 0;
#X connect 8 0 5 0;
#X connect 9 0 5 1;
#X connect 13 0 14 0;
#X connect 15 0 48 0;
#X connect 17 0 21 0;
#X connect 19 0 20 0;
#X connect 21 0 19 0;
#X connect 22 0 28 0;
#X connect 23 0 28 1;
#X connect 24 0 28 2;
#X connect 25 0 28 3;
#X connect 26 0 28 4;
#X connect 27 0 28 5;
#X connect 29 0 26 0;
#X connect 30 0 27 0;
#X connect 31 0 28 6;
#X connect 32 0 28 7;
#X connect 33 0 31 0;
#X connect 34 0 32 0;
#X connect 38 0 28 8;
#X connect 39 0 28 9;
#X connect 40 0 38 0;
#X connect 41 0 39 0;
#X connect 45 0 46 0;
#X connect 50 0 51 0;
#X connect 51 0 49 0;
#X connect 53 0 49 1;
#X connect 54 0 53 0;
#X connect 55 0 49 2;
#X connect 56 0 49 3;
#X connect 61 0 55 0;
#X connect 62 0 56 0;
#X connect 64 0 68 0;
#X connect 65 0 58 0;
#X connect 65 0 80 0;
#X connect 66 0 59 0;
#X connect 66 0 81 0;
#X connect 67 0 60 0;
#X connect 67 0 82 0;
#X connect 69 0 70 0;
#X connect 70 0 57 0;
#X connect 70 0 79 0;
#X connect 75 0 65 0;
#X connect 76 0 66 0;
#X connect 77 0 67 0;
#X connect 79 0 87 0;
#X connect 80 0 86 0;
#X connect 81 0 85 0;
#X connect 82 0 84 0;
#X connect 84 0 88 0;
#X connect 85 0 73 0;
#X connect 86 0 72 0;
#X connect 87 0 71 0;
#X connect 88 0 83 0;
#X coords 0 0 1 1 85 60 0;
